<?xml version="1.0" encoding="UTF-8"?>
<svg id="Layer_1" xmlns="http://www.w3.org/2000/svg" version="1.1" viewBox="0 0 166.42 58.77">
  <!-- Generator: Adobe Illustrator 29.6.1, SVG Export Plug-In . SVG Version: 2.1.1 Build 9)  -->
  <defs>
    <style>
      .st0 {
        fill: #fff;
      }
    </style>
  </defs>
  <path class="st0" d="M28.9,29.5c-.02-.28.08-.53.26-.71.16-.16.39-.26.64-.26h5.96c1.09,0,1.76-1.17,1.22-2.11l-6.34-10.99c-.13-.22-.36-.35-.61-.35h-12.64c-1.09,0-1.76,1.17-1.22,2.11l2.95,5.1c.25.43.1.99-.33,1.24-.14.08-.3.12-.45.12-.31,0-.62-.16-.78-.45l-2.94-5.1c-.54-.94-1.9-.94-2.44,0l-6.31,10.93c-.13.22-.13.49,0,.7l6.34,10.98c.54.94,1.9.94,2.44,0l2.87-4.97c.25-.43.8-.58,1.24-.33.29.17.45.47.45.78,0,.15-.04.31-.12.45l-2.84,4.92c-.54.94.14,2.11,1.22,2.11h12.57c.25,0,.48-.13.61-.35l6.28-10.88c.54-.94-.14-2.11-1.22-2.11h-5.87c-.48,0-.9-.36-.93-.84ZM27.9,21.39l-4.26,7.38c-.25.44-.25.97,0,1.41l4.07,7.05c.25.43.1.99-.33,1.24-.14.08-.3.12-.45.12-.31,0-.62-.16-.78-.45l-4.09-7.09c-.25-.44-.72-.7-1.22-.7h-8.11c-.48,0-.9-.36-.94-.84-.02-.28.09-.53.26-.7.16-.16.39-.26.64-.26h8.2c.5,0,.97-.27,1.22-.7l4.24-7.34c.25-.43.8-.58,1.24-.33.29.17.45.47.45.78,0,.15-.04.31-.12.45Z"/>
  <g>
    <path class="st0" d="M48.39,25.33v-3.17h5.43l1.59-1.59v-.06h-8.66v1.93h-3.17l-.02-3.52,1.61-1.59h11.79l1.61,1.59v2.91l-2.06,1.91,2.06,1.91v2.89l-1.61,1.61h-11.79l-1.61-1.61v-3.5h3.19v1.93h8.66v-.06l-1.59-1.59h-5.43Z"/>
    <path class="st0" d="M62.38,17.34h13.4l1.61,1.59v11.22h-15v-12.81ZM74.22,20.52h-8.66v6.46h8.66v-6.46Z"/>
    <path class="st0" d="M90.77,17.34h3.17v9.63h10.23v3.17h-13.4v-12.81Z"/>
    <path class="st0" d="M107.99,18.93l1.61-1.59h11.79l1.61,1.59v11.22h-3.17v-3.17h-8.66v3.17h-3.17v-11.22ZM119.82,20.52h-8.66v3.29h8.66v-3.29Z"/>
    <path class="st0" d="M141.82,25.33v3.21l-1.61,1.61h-13.4v-12.81h13.4l1.61,1.59v3.23l-1.61,1.59,1.61,1.59ZM138.65,20.52h-8.66v1.64h8.66v-1.64ZM138.65,25.33h-8.66v1.64h8.66v-1.64Z"/>
    <path class="st0" d="M145.64,18.93l1.61-1.59h13.4v3.17h-11.83v1.64h10.23l1.61,1.59v4.8l-1.61,1.61h-13.4v-3.17h11.83v-1.64h-10.23l-1.61-1.59v-4.82Z"/>
  </g>
  <g>
    <path class="st0" d="M47.47,41.52v.87l-.39.44h-3.28v-3.48h3.28l.39.43v.88l-.39.43.39.43ZM46.69,40.21h-2.12v.45h2.12v-.45ZM46.69,41.52h-2.12v.45h2.12v-.45Z"/>
    <path class="st0" d="M48.4,40.93v-1.58h.78v1.24l.39.43h1.34l.39-.43v-1.24h.78v1.58l-.92.95h-.52v.95h-.78v-.95h-.52l-.92-.95Z"/>
    <path class="st0" d="M56.13,40.21v.43h-.78v-1.29h3.67v1.29h-.78v-.43h-.67v2.62h-.78v-2.62h-.67Z"/>
    <path class="st0" d="M60.73,41.97h2.9v.86h-3.67v-3.48h3.67v.86h-2.9v.45h2.62v.86h-2.62v.45Z"/>
    <path class="st0" d="M64.56,39.78l.39-.43h2.89l.39.43v1.09h-.78v-.65h-2.12v1.76h2.12v-.65h.78v1.08l-.39.44h-2.89l-.39-.44v-2.61Z"/>
    <path class="st0" d="M72.07,41.52h-2.12v1.31h-.78v-3.48h.78v1.31h2.12v-1.31h.78v3.48h-.78v-1.31Z"/>
    <path class="st0" d="M74.56,42.83h-.78v-3.48h.78l2.12,2.31v-2.31h.78v3.48h-.78l-2.12-2.31v2.31Z"/>
    <path class="st0" d="M78.4,39.78l.39-.43h2.89l.39.43v2.61l-.39.44h-2.89l-.39-.44v-2.61ZM81.29,40.21h-2.12v1.76h2.12v-1.76Z"/>
    <path class="st0" d="M83.78,40.21v.43h-.78v-1.29h3.67v1.29h-.78v-.43h-.67v2.62h-.78v-2.62h-.67Z"/>
    <path class="st0" d="M87.61,39.35h3.28l.39.43v1.24l-.51.52.51.52v.77h-.78v-.43l-.39-.43h-1.73v.86h-.78v-3.48ZM90.12,41.11l.39-.43v-.46h-2.12v.89h1.73Z"/>
    <path class="st0" d="M92.22,39.78l.39-.43h2.89l.39.43v2.61l-.39.44h-2.89l-.39-.44v-2.61ZM95.12,40.21h-2.12v1.76h2.12v-1.76Z"/>
    <path class="st0" d="M97.61,42.83h-.78v-3.48h.78l2.12,2.31v-2.31h.78v3.48h-.78l-2.12-2.31v2.31Z"/>
    <path class="st0" d="M102.5,40.21h-1.05v-.86h2.89v.86h-1.05v1.76h1.05v.86h-2.89v-.86h1.05v-1.76Z"/>
    <path class="st0" d="M105.27,39.78l.39-.43h2.89l.39.43v1.09h-.78v-.65h-2.12v1.76h2.12v-.65h.78v1.08l-.39.44h-2.89l-.39-.44v-2.61Z"/>
    <path class="st0" d="M112.99,40.66h2.62v.86h-2.62v1.31h-.78v-3.48h3.67v.86h-2.9v.45Z"/>
    <path class="st0" d="M117.22,42.83l-.39-.44v-3.04h.78v2.62h2.12v-2.62h.78v3.48h-3.28Z"/>
    <path class="st0" d="M122.21,40.21v.43h-.78v-1.29h3.67v1.29h-.78v-.43h-.67v2.62h-.78v-2.62h-.67Z"/>
    <path class="st0" d="M126.44,42.83l-.39-.44v-3.04h.78v2.62h2.12v-2.62h.78v3.48h-3.28Z"/>
    <path class="st0" d="M130.65,39.35h3.28l.39.43v1.24l-.51.52.51.52v.77h-.78v-.43l-.39-.43h-1.73v.86h-.78v-3.48ZM133.16,41.11l.39-.43v-.46h-2.12v.89h1.73Z"/>
    <path class="st0" d="M136.32,40.21h-1.05v-.86h2.89v.86h-1.05v1.76h1.05v.86h-2.89v-.86h1.05v-1.76Z"/>
    <path class="st0" d="M139.09,39.78l.39-.43h3.28v.86h-2.9v.45h2.5l.39.43v1.3l-.39.44h-3.28v-.86h2.9v-.45h-2.5l-.39-.43v-1.31Z"/>
    <path class="st0" d="M144.48,40.21v.43h-.78v-1.29h3.67v1.29h-.78v-.43h-.67v2.62h-.78v-2.62h-.67Z"/>
    <path class="st0" d="M149.36,40.21h-1.05v-.86h2.89v.86h-1.05v1.76h1.05v.86h-2.89v-.86h1.05v-1.76Z"/>
    <path class="st0" d="M152.13,39.78l.39-.43h2.89l.39.43v1.09h-.78v-.65h-2.12v1.76h2.12v-.65h.78v1.08l-.39.44h-2.89l-.39-.44v-2.61Z"/>
    <path class="st0" d="M156.74,39.78l.39-.43h3.28v.86h-2.9v.45h2.5l.39.43v1.3l-.39.44h-3.28v-.86h2.9v-.45h-2.5l-.39-.43v-1.31Z"/>
  </g>
  <rect class="st0" x="47.9" y="33.97" width="108.41" height="1.76"/>
</svg>