<?xml version="1.0" encoding="UTF-8"?>
<svg id="Layer_1" xmlns="http://www.w3.org/2000/svg" version="1.1" viewBox="0 0 250 142.47">
  <!-- Generator: Adobe Illustrator 29.8.2, SVG Export Plug-In . SVG Version: 2.1.1 Build 3)  -->
  <defs>
    <style>
      .st0 {
        fill: #fff;
      }
    </style>
  </defs>
  <path class="st0" d="M242.34,100.67H7.64c-1.03,0-1.97-.57-2.44-1.49-.47-.92-.39-2.01.22-2.85l38.84-53.65c1.73-2.39,4.53-3.82,7.48-3.82h146.1c2.83,0,5.52,1.36,7.2,3.64l39.52,53.81c.62.84.7,1.93.24,2.86-.47.93-1.41,1.5-2.44,1.5ZM9.26,97.11h231.46l-38.55-52.5c-1.01-1.37-2.62-2.19-4.32-2.19H51.74c-1.81,0-3.53.88-4.59,2.34L9.26,97.11Z"/>
  <path class="st0" d="M3.98,104.44v10.23c0,4.69,3.81,8.5,8.51,8.5h11.41v8.54c0,3.55,2.89,6.43,6.43,6.43h14.97c3.55,0,6.43-2.89,6.43-6.43v-8.54h145.91v8.54c0,3.55,2.89,6.43,6.43,6.43h14.97c3.55,0,6.43-2.89,6.43-6.43v-8.54h12.02c4.69,0,8.51-3.81,8.51-8.5v-10.23H3.98ZM48.18,131.71c0,1.58-1.28,2.87-2.87,2.87h-14.97c-1.58,0-2.87-1.29-2.87-2.87v-8.54h20.71v8.54ZM221.92,131.71c0,1.58-1.29,2.87-2.87,2.87h-14.97c-1.59,0-2.87-1.29-2.87-2.87v-8.54h20.71v8.54ZM242.45,114.67c0,2.72-2.22,4.94-4.94,4.94H12.49c-2.73,0-4.94-2.22-4.94-4.94v-6.67h234.9v6.67Z"/>
  <rect class="st0" x="32.18" y="80.12" width="33.88" height="3.82" rx="1.91" ry="1.91" transform="translate(-32.19 31.73) rotate(-27.34)"/>
  <rect class="st0" x="48.17" y="51.74" width="27.44" height="3.82" rx="1.91" ry="1.91" transform="translate(-17.73 34.42) rotate(-27.34)"/>
  <rect class="st0" x="61.22" y="54.17" width="27.44" height="3.82" rx="1.91" ry="1.91" transform="translate(-17.38 40.69) rotate(-27.34)"/>
  <rect class="st0" x="108.99" y="50.42" width="21.31" height="3.82" rx="1.91" ry="1.91" transform="translate(-10.67 60.8) rotate(-27.34)"/>
  <rect class="st0" x="104.8" y="70.85" width="41.99" height="3.82" rx="1.91" ry="1.91" transform="translate(-19.36 65.91) rotate(-27.34)"/>
  <rect class="st0" x="169.93" y="56.72" width="29.23" height="3.82" rx="1.91" ry="1.91" transform="translate(-6.31 91.32) rotate(-27.34)"/>
  <rect class="st0" x="177.24" y="79.19" width="30.11" height="3.82" rx="1.91" ry="1.91" transform="translate(-15.77 97.39) rotate(-27.34)"/>
  <rect class="st0" x="192.14" y="81.72" width="25.9" height="3.82" rx="1.91" ry="1.91" transform="translate(-15.5 103.54) rotate(-27.34)"/>
  <rect class="st0" x="207.94" y="86.05" width="14.38" height="3.82" rx="1.91" ry="1.91" transform="translate(-16.36 108.64) rotate(-27.34)"/>
  <path class="st0" d="M103.64,33.14c-.31,0-.61-.08-.9-.24-.85-.5-1.14-1.59-.64-2.44,1.73-2.96,2.33-5.57,1.78-7.78-.33-1.35-1-2.25-1.77-3.29-.91-1.22-1.93-2.61-2.36-4.76-.59-2.98.21-6.17,2.38-9.51.54-.83,1.64-1.06,2.47-.52.83.54,1.06,1.64.52,2.47-1.64,2.53-2.27,4.84-1.87,6.87.27,1.36.91,2.23,1.73,3.33.87,1.18,1.86,2.51,2.36,4.56.77,3.13.04,6.64-2.17,10.43-.33.57-.93.88-1.54.88Z"/>
  <path class="st0" d="M124.32,33.14c-.31,0-.61-.08-.9-.24-.85-.5-1.14-1.59-.64-2.44,1.73-2.96,2.33-5.57,1.78-7.78-.33-1.35-1-2.25-1.77-3.29-.91-1.22-1.93-2.61-2.36-4.76-.59-2.97.21-6.17,2.38-9.51.54-.83,1.64-1.06,2.47-.52.83.54,1.06,1.64.52,2.47-1.64,2.53-2.27,4.84-1.87,6.87.27,1.36.91,2.23,1.73,3.33.87,1.18,1.86,2.51,2.36,4.56.77,3.13.04,6.64-2.17,10.43-.33.57-.93.88-1.54.88Z"/>
  <path class="st0" d="M144.69,33.14c-.31,0-.61-.08-.9-.24-.85-.5-1.14-1.59-.64-2.44,1.73-2.96,2.33-5.57,1.78-7.78-.33-1.35-1-2.25-1.77-3.29-.91-1.22-1.93-2.61-2.36-4.76-.59-2.97.21-6.17,2.38-9.51.54-.83,1.64-1.06,2.47-.52.83.54,1.06,1.64.52,2.47-1.64,2.53-2.27,4.84-1.87,6.87.27,1.36.91,2.23,1.73,3.33.87,1.18,1.86,2.51,2.36,4.56.77,3.13.04,6.64-2.17,10.43-.33.57-.93.88-1.54.88Z"/>
</svg>