<?xml version="1.0" encoding="UTF-8"?>
<svg id="Layer_1" xmlns="http://www.w3.org/2000/svg" version="1.1" viewBox="0 0 48 48">
  <!-- Generator: Adobe Illustrator 29.8.2, SVG Export Plug-In . SVG Version: 2.1.1 Build 3)  -->
  <defs>
    <style>
      .st0 {
        fill: #fff;
      }

      .st1 {
        fill: none;
      }
    </style>
  </defs>
  <rect class="st1" x=".95" y="0" width="46.1" height="48"/>
  <path class="st0" d="M46.95,45.07l-7.96-31.02h-9.25c1.52-1.52,2.46-3.51,2.46-5.85C32.2,3.63,28.57,0,24,0s-8.2,3.63-8.2,8.2c0,2.34.94,4.33,2.46,5.85h-9.25L1.05,45.07c-.47,1.52.7,2.93,2.22,2.93h41.44c1.52,0,2.69-1.4,2.22-2.93ZM18.15,8.2c0-3.28,2.58-5.85,5.85-5.85s5.85,2.58,5.85,5.85-2.58,5.85-5.85,5.85-5.85-2.58-5.85-5.85ZM3.28,45.66l7.61-29.27h26.34l7.61,29.27H3.28Z"/>
</svg>