<?xml version="1.0" encoding="UTF-8"?>
<svg id="Layer_1" xmlns="http://www.w3.org/2000/svg" version="1.1" viewBox="0 0 200 200">
  <!-- Generator: Adobe Illustrator 29.8.2, SVG Export Plug-In . SVG Version: 2.1.1 Build 3)  -->
  <defs>
    <style>
      .st0 {
        fill: #fff;
      }
    </style>
  </defs>
  <path class="st0" d="M177.73,28.66L102.01.36c-1.3-.48-2.73-.48-4.03,0L22.27,28.66c-2.22.82-3.7,2.94-3.7,5.31v66.03c0,24.82,13.76,49.94,39.8,72.65,19.26,16.8,38.27,26.35,39.07,26.75,1.61.8,3.51.8,5.13,0,.8-.4,19.81-9.95,39.07-26.75,26.04-22.71,39.8-47.83,39.8-72.65V33.97c0-2.37-1.48-4.49-3.7-5.31ZM170,100c0,46.71-57.09,80.79-70,87.89-12.91-7.1-70-41.18-70-87.89v-62.1L100,11.74l70,26.16v62.1Z"/>
</svg>