<?xml version="1.0" encoding="UTF-8"?>
<svg id="Layer_1" xmlns="http://www.w3.org/2000/svg" version="1.1" viewBox="0 0 173.11 250">
  <!-- Generator: Adobe Illustrator 29.8.2, SVG Export Plug-In . SVG Version: 2.1.1 Build 3)  -->
  <defs>
    <style>
      .st0 {
        fill: #fff;
      }
    </style>
  </defs>
  <path class="st0" d="M86.55,96.74c-4,0-7.24-3.25-7.24-7.24s3.25-7.24,7.24-7.24,7.24,3.25,7.24,7.24-3.25,7.24-7.24,7.24ZM86.55,85.5c-2.21,0-4,1.79-4,4s1.79,4,4,4,4-1.79,4-4-1.79-4-4-4Z"/>
  <path class="st0" d="M168.06,89.5c0-44.95-36.57-81.5-81.53-81.5S5.04,44.55,5.04,89.5c0,38.37,26.65,70.65,62.41,79.25-.13.61-.2,1.27-.2,1.94v61.93c0,5.16,4.22,9.38,9.41,9.38h19.77c5.16,0,9.38-4.22,9.38-9.38v-61.93c0-.68-.06-1.33-.2-1.94,35.8-8.6,62.44-40.9,62.44-79.25h.01ZM96.08,171.03v61.24h-19.09v-61.24h19.09ZM86.54,161.29c-39.56,0-71.76-32.2-71.76-71.79S46.98,17.74,86.54,17.74s71.79,32.2,71.79,71.76-32.2,71.79-71.79,71.79Z"/>
  <path class="st0" d="M86.54,27.32c-34.27,0-62.18,27.91-62.18,62.18s27.91,62.18,62.18,62.18,62.18-27.88,62.18-62.18-27.88-62.18-62.18-62.18ZM86.54,141.95c-27.98,0-50.93-22.03-52.38-49.68h7.23c2.53,0,4.57-2.02,4.57-4.55s-2.04-4.55-4.57-4.55h-6.92c1.27-10.62,5.74-20.28,12.43-27.98l5.25,5.25c1.78,1.78,4.68,1.78,6.43,0,1.78-1.78,1.78-4.68,0-6.46l-5.13-5.13c7.82-6.43,17.56-10.62,28.2-11.58v7.5c0,2.49,2.04,4.55,4.55,4.55s4.57-2.04,4.57-4.55v-7.53c26.94,2.14,48.19,24.77,48.19,52.25,0,28.92-23.53,52.44-52.44,52.44h0Z"/>
  <path class="st0" d="M106.72,67.56l-17.62,9.84c-.35-.06-.71-.13-1.07-.16-.49-.1-.98-.13-1.49-.13-6.84,0-12.4,5.55-12.4,12.4s5.55,12.4,12.4,12.4,12.4-5.55,12.4-12.4c0-.43-.04-.91-.06-1.39-.04-.39-.1-.81-.2-1.2l9.84-17.59c.65-1.14-.61-2.41-1.78-1.75h-.01ZM86.54,98.65c-5.03,0-9.15-4.12-9.15-9.15s4.12-9.15,9.15-9.15c.33,0,.68.04,1.04.1,4.22.45,7.6,3.84,8.05,7.98.04.35.06.71.06,1.07,0,5.03-4.12,9.15-9.15,9.15Z"/>
</svg>