<?xml version="1.0" encoding="UTF-8"?>
<svg id="Layer_1" xmlns="http://www.w3.org/2000/svg" version="1.1" viewBox="0 0 157.79 215.3">
  <!-- Generator: Adobe Illustrator 29.8.2, SVG Export Plug-In . SVG Version: 2.1.1 Build 3)  -->
  <defs>
    <style>
      .st0 {
        fill: #fff;
      }
    </style>
  </defs>
  <rect class="st0" x="49.13" y="5.57" width="5.61" height="31.69"/>
  <rect class="st0" x="139.59" y="116.38" width="2.79" height="6.09"/>
  <path class="st0" d="M142.39,112.39v2.79h-9.66c-.55,0-1-.45-1-1v-.79c0-.55.45-1,1-1h9.66Z"/>
  <path class="st0" d="M124.31,115.06v3.46h-6.96c-.77,0-1.4-.63-1.4-1.4s.63-1.4,1.4-1.4h4.17v-.67h2.79Z"/>
  <path class="st0" d="M142.39,106.75v2.79h-9.66c-.55,0-1-.45-1-1v-.79c0-.55.45-1,1-1h9.66Z"/>
  <rect class="st0" x="43.82" y="177.85" width="4.02" height="20" transform="translate(-103.58 65.12) rotate(-36.89)"/>
  <rect class="st0" x="14.01" y="60.55" width="5.61" height="43.83"/>
  <path class="st0" d="M14.01,108.05h5.61v16.16c0,1.11-.9,2.01-2.01,2.01h-1.59c-1.11,0-2.01-.9-2.01-2.01v-16.16h0Z"/>
  <path class="st0" d="M140.1,35.99h-21.91c-7.15,0-12.96,5.81-12.96,12.95v16.33h-5.5v-4.56c0-5.05-4.1-9.15-9.15-9.15h-12.59v-3.1c0-3.63-2.94-6.57-6.57-6.57h-38.78c-3.63,0-6.57,2.94-6.57,6.57v3.1h-12.21c-5.05,0-9.15,4.1-9.15,9.15v86.94c0,5.05,4.1,9.15,9.15,9.15h76.73c5.05,0,9.15-4.1,9.15-9.15v-9.28h5.5v5.47c0,7.16,5.82,12.96,12.96,12.96h21.91c7.15,0,12.96-5.81,12.96-12.96V48.94c0-7.15-5.82-12.95-12.96-12.95h-.01ZM30.24,48.46c0-1.31,1.07-2.39,2.39-2.39h38.78c1.31,0,2.39,1.07,2.39,2.39v3.1H30.24v-3.1ZM95.54,147.65c0,2.74-2.22,4.97-4.97,4.97H13.84c-2.74,0-4.97-2.23-4.97-4.97V60.71c0-2.74,2.23-4.97,4.97-4.97h76.73c2.75,0,4.97,2.23,4.97,4.97,0,0,0,86.94,0,86.94ZM105.22,133.82h-5.5v-64.01h5.5v64.01ZM148.87,143.84c0,4.84-3.94,8.78-8.78,8.78h-21.91c-4.84,0-8.78-3.94-8.78-8.78V48.94c0-4.83,3.94-8.76,8.78-8.76h21.91c4.84,0,8.78,3.94,8.78,8.76v94.9Z"/>
  <path class="st0" d="M140.25,103.42h-22.25c-2.41,0-4.37-1.96-4.37-4.37v-44.95c0-2.41,1.96-4.37,4.37-4.37h22.25c2.41,0,4.37,1.96,4.37,4.37v44.95c0,2.41-1.96,4.37-4.37,4.37ZM118,53.91c-.1,0-.19.08-.19.19v44.95c0,.1.08.19.19.19h22.25c.1,0,.19-.08.19-.19v-44.95c0-.1-.08-.19-.19-.19,0,0-22.25,0-22.25,0Z"/>
  <path class="st0" d="M129.13,144.7c-4.48,0-8.12-3.64-8.12-8.12s3.64-8.12,8.12-8.12,8.12,3.64,8.12,8.12-3.64,8.12-8.12,8.12ZM129.13,132.65c-2.17,0-3.93,1.76-3.93,3.93s1.76,3.93,3.93,3.93,3.93-1.76,3.93-3.93-1.76-3.93-3.93-3.93Z"/>
  <path class="st0" d="M120.35,114.4c-2.4,0-4.35-1.95-4.35-4.35s1.95-4.35,4.35-4.35,4.35,1.95,4.35,4.35-1.95,4.35-4.35,4.35ZM120.35,107.79c-1.24,0-2.26,1.01-2.26,2.26s1.01,2.26,2.26,2.26,2.26-1.01,2.26-2.26-1.01-2.26-2.26-2.26Z"/>
  <path class="st0" d="M51.81,209.73c-1.16,0-2.23-.53-2.93-1.46l-19.65-26.2.03-17.22c0-2.3,1.88-4.17,4.18-4.17h36.74c2.31,0,4.18,1.88,4.18,4.18v17.2l-19.62,26.2c-.7.93-1.76,1.47-2.93,1.47h0ZM51.39,205.75h0ZM33.41,180.67l18.39,24.52,18.36-24.52v-15.81h-36.74l-.02,15.81h.01Z"/>
</svg>