<?xml version="1.0" encoding="UTF-8"?>
<svg id="Layer_1" xmlns="http://www.w3.org/2000/svg" version="1.1" viewBox="0 0 200 200">
  <!-- Generator: Adobe Illustrator 29.8.2, SVG Export Plug-In . SVG Version: 2.1.1 Build 3)  -->
  <defs>
    <style>
      .st0 {
        fill: #fff;
      }
    </style>
  </defs>
  <path class="st0" d="M100,200c-19.14,0-34.72-15.41-34.72-34.35,0-10.48,4.71-20.15,12.95-26.71V21.54C78.24,9.66,88,0,100,0s21.76,9.66,21.76,21.54v117.4c8.25,6.56,12.95,16.24,12.95,26.71,0,18.94-15.57,34.35-34.72,34.35ZM100,4.64c-9.43,0-17.1,7.58-17.1,16.89v119.7l-.94.69c-7.64,5.68-12.02,14.33-12.02,23.72,0,16.38,13.48,29.71,30.05,29.71s30.05-13.33,30.05-29.71c0-9.39-4.38-18.04-12.02-23.72l-.94-.69V21.54c0-9.31-7.67-16.89-17.1-16.89ZM80.57,140.08h.01-.01Z"/>
  <path class="st0" d="M100,177.58c-6.64,0-12.05-5.35-12.05-11.93s5.4-11.93,12.05-11.93,12.05,5.35,12.05,11.93-5.4,11.93-12.05,11.93ZM100,158.37c-4.07,0-7.38,3.27-7.38,7.29s3.31,7.29,7.38,7.29,7.38-3.27,7.38-7.29-3.31-7.29-7.38-7.29Z"/>
  <path class="st0" d="M102.33,75.98v80.07h-4.67v-80.07h4.67Z"/>
  <path class="st0" d="M58.69,110.33h-19.31v-4.64h17.74l84.2-64.05h19.31v4.64h-17.74S58.69,110.33,58.69,110.33Z"/>
</svg>