<?xml version="1.0" encoding="UTF-8"?>
<svg id="Layer_1" xmlns="http://www.w3.org/2000/svg" version="1.1" viewBox="0 0 48 48">
  <!-- Generator: Adobe Illustrator 29.8.2, SVG Export Plug-In . SVG Version: 2.1.1 Build 3)  -->
  <defs>
    <style>
      .st0 {
        fill: #fff;
      }
    </style>
  </defs>
  <path class="st0" d="M48,24c0,1.32-1.07,2.4-2.39,2.4-.33,0-.65-.07-.96-.2-.02,0-.03,0-.05-.01-.03-.01-.05-.04-.08-.06-.41-.21-.75-.53-.99-.93h-18.33v7.9l2.75-2.75,1.7,1.7-5.65,5.65-5.65-5.65,1.7-1.7,2.75,2.75v-7.9H4.48c-.66,1.15-2.13,1.54-3.28.88-1.15-.66-1.54-2.13-.88-3.28.66-1.15,2.13-1.54,3.28-.88.36.21.67.51.88.88h18.33V4.8h2.4v18h18.33c.66-1.15,2.12-1.54,3.27-.88.75.43,1.2,1.22,1.2,2.08ZM13.78,37.92c-.32-.2-.63-.41-.94-.63-.53-.39-1.28-.28-1.68.25-.39.53-.28,1.28.25,1.68,0,0,.02.01.03.02.34.25.7.49,1.06.72.55.37,1.3.22,1.66-.34.37-.55.22-1.3-.34-1.66-.02,0-.03-.02-.05-.03h0ZM18.96,40.17c-.37-.1-.73-.2-1.09-.32-.62-.23-1.31.09-1.54.71,0,.01,0,.03-.01.04-.21.63.14,1.31.77,1.51.01,0,.02,0,.04.01.4.13.81.25,1.23.36.64.17,1.3-.22,1.46-.86.17-.64-.22-1.3-.86-1.46h0s0,0,0,0ZM8.7,33.36c-.42-.51-1.18-.59-1.69-.17-.51.42-.59,1.18-.17,1.69h0c.26.32.54.64.82.96.43.5,1.19.55,1.69.12s.55-1.19.12-1.69c0-.01-.02-.02-.03-.03-.26-.29-.51-.58-.75-.87ZM5.55,28.52c-.3-.59-1.03-.82-1.62-.52s-.82,1.03-.52,1.62h0c.19.36.39.73.6,1.11.33.58,1.06.78,1.64.45s.78-1.06.45-1.64c-.19-.34-.38-.68-.55-1.02h0ZM44.1,27.95c-.59-.3-1.31-.07-1.61.52-.17.33-.36.68-.55,1.02-.35.56-.17,1.3.39,1.65.56.35,1.3.17,1.65-.39.02-.03.03-.05.05-.08.21-.38.41-.75.6-1.1.3-.59.07-1.31-.51-1.61h0s0,0,0,0ZM39.34,33.31c-.24.29-.49.59-.75.88-.44.5-.39,1.26.11,1.69.49.43,1.24.39,1.68-.09.29-.32.56-.64.82-.96.43-.5.37-1.26-.13-1.69s-1.26-.37-1.69.13c-.01.01-.02.03-.04.04h0ZM35.21,37.26c-.31.22-.62.43-.94.64-.57.34-.75,1.08-.4,1.65.34.57,1.08.75,1.65.4.02,0,.03-.02.05-.03.36-.23.71-.47,1.05-.72.54-.39.66-1.14.27-1.68s-1.14-.66-1.68-.27ZM30.19,39.83c-.36.12-.72.22-1.09.32-.64.17-1.02.82-.86,1.46s.82,1.02,1.46.86c.42-.11.83-.23,1.23-.36.63-.21.97-.89.76-1.51s-.89-.97-1.51-.76ZM24.6,40.79c-.38,0-.76.01-1.14,0-.66,0-1.2.52-1.23,1.17-.02.66.51,1.21,1.17,1.23.42.01.85.01,1.27,0,.66-.02,1.18-.57,1.17-1.23s-.57-1.18-1.23-1.17h0Z"/>
</svg>